<svg width="543" height="422" viewBox="0 0 543 422" fill="none" xmlns="http://www.w3.org/2000/svg">
<path opacity="0.48" d="M177.49 320.954C142.391 321.112 106.349 316.453 75.5223 299.559C44.696 282.666 19.5339 253.877 11.4976 219.691C3.4612 185.505 14.5596 146.333 42.2754 124.708C86.6813 90.074 154.93 107.863 202.7 78.0333C219.415 67.5899 232.244 52.076 247.276 39.3092C272.87 17.6391 304.41 4.19743 337.77 0.742366C365.534 -2.07723 395.283 2.84799 416.911 20.4675C438.951 38.4016 449.589 66.7428 456.016 94.4184C462.442 122.094 465.698 150.835 477.087 176.852C490.812 208.074 516.615 238.036 510.116 271.509C503.544 305.332 466.545 324.064 432.657 329.909C354.738 343.33 294.199 302.548 219.729 316.029C219.681 315.993 194.047 320.882 177.49 320.954Z" fill="#82C3E2"/>
<path opacity="0.48" d="M221.617 47.7803H147.293V145.329H221.617V47.7803Z" fill="#82C3E2"/>
<path d="M219.911 45.9648H145.587V143.513H219.911V45.9648Z" fill="white"/>
<path d="M169.21 57.8358V56.9575H175.343V57.8358H172.772V65.1336H171.781V57.8358H169.21Z" fill="#4D9AFD"/>
<path d="M176.871 65.1336V56.9575H181.806V57.8358H177.861V60.5984H181.551V61.4767H177.861V64.2553H181.87V65.1336H176.871Z" fill="#4D9AFD"/>
<path d="M188.063 59.0015C188.015 58.597 187.821 58.2829 187.48 58.0593C187.139 57.8358 186.721 57.724 186.226 57.724C185.864 57.724 185.547 57.7825 185.276 57.8996C185.007 58.0168 184.797 58.1778 184.645 58.3827C184.496 58.5876 184.421 58.8205 184.421 59.0813C184.421 59.2996 184.473 59.4872 184.577 59.6442C184.684 59.7986 184.819 59.9277 184.984 60.0315C185.149 60.1326 185.322 60.2165 185.503 60.283C185.684 60.3469 185.851 60.3988 186.003 60.4387L186.833 60.6623C187.046 60.7182 187.283 60.7953 187.544 60.8938C187.807 60.9923 188.059 61.1267 188.298 61.297C188.541 61.4647 188.74 61.6803 188.897 61.9438C189.054 62.2073 189.133 62.5306 189.133 62.9139C189.133 63.3557 189.017 63.7549 188.786 64.1115C188.557 64.4682 188.221 64.7516 187.779 64.9619C187.34 65.1721 186.806 65.2773 186.178 65.2773C185.593 65.2773 185.086 65.1828 184.657 64.9938C184.231 64.8049 183.896 64.5414 183.651 64.2034C183.409 63.8654 183.272 63.4728 183.24 63.0257H184.262C184.288 63.3344 184.392 63.5899 184.573 63.7922C184.757 63.9918 184.988 64.1408 185.268 64.2393C185.55 64.3351 185.854 64.383 186.178 64.383C186.556 64.383 186.896 64.3218 187.196 64.1994C187.497 64.0743 187.735 63.9013 187.911 63.6804C188.087 63.4568 188.175 63.196 188.175 62.8979C188.175 62.6264 188.099 62.4055 187.947 62.2352C187.795 62.0649 187.596 61.9265 187.348 61.82C187.101 61.7136 186.833 61.6204 186.546 61.5406L185.539 61.2531C184.901 61.0695 184.395 60.8073 184.022 60.4666C183.65 60.126 183.463 59.6802 183.463 59.1293C183.463 58.6715 183.587 58.2723 183.835 57.9316C184.085 57.5883 184.42 57.3221 184.841 57.1331C185.264 56.9415 185.736 56.8457 186.258 56.8457C186.785 56.8457 187.254 56.9402 187.664 57.1292C188.074 57.3155 188.398 57.571 188.638 57.8957C188.88 58.2204 189.008 58.589 189.021 59.0015H188.063Z" fill="#4D9AFD"/>
<path d="M190.314 57.8358V56.9575H196.447V57.8358H193.875V65.1336H192.885V57.8358H190.314Z" fill="#4D9AFD"/>
<path d="M217.139 48.9902H148.346V140.173H217.139V48.9902Z" stroke="#ADD4F2" stroke-width="0.5" stroke-miterlimit="10"/>
<path d="M207.009 72.0674H162.736V73.1202H207.009V72.0674Z" fill="#4D9AFD"/>
<path d="M207.009 74.9961H162.736V76.0489H207.009V74.9961Z" fill="#4D9AFD"/>
<path d="M207.009 78.1426H162.736V79.1954H207.009V78.1426Z" fill="#4D9AFD"/>
<path d="M160.122 72.0674H157.218V74.9838H160.122V72.0674Z" fill="#4D9AFD"/>
<path d="M207.009 82.0625H162.736V83.1153H207.009V82.0625Z" fill="#4D9AFD"/>
<path d="M207.009 84.9795H162.736V86.0323H207.009V84.9795Z" fill="#4D9AFD"/>
<path d="M207.009 88.126H162.736V89.1788H207.009V88.126Z" fill="#4D9AFD"/>
<path d="M160.122 82.0625H157.218V84.9789H160.122V82.0625Z" fill="#4D9AFD"/>
<path d="M207.009 91.9375H162.736V92.9903H207.009V91.9375Z" fill="#4D9AFD"/>
<path d="M207.009 94.8545H162.736V95.9073H207.009V94.8545Z" fill="#4D9AFD"/>
<path d="M207.009 98H162.736V99.0528H207.009V98Z" fill="#4D9AFD"/>
<path d="M160.122 91.9375H157.218V94.8539H160.122V91.9375Z" fill="#4D9AFD"/>
<path d="M207.009 101.934H162.736V102.986H207.009V101.934Z" fill="#4D9AFD"/>
<path d="M207.009 104.85H162.736V105.902H207.009V104.85Z" fill="#4D9AFD"/>
<path d="M207.009 107.996H162.736V109.049H207.009V107.996Z" fill="#4D9AFD"/>
<path d="M160.122 101.934H157.218V104.85H160.122V101.934Z" fill="#4D9AFD"/>
<g style="mix-blend-mode:multiply" opacity="0.59">
<path d="M475.514 383.579C475.514 389.811 383.955 394.857 270.974 394.857C157.993 394.857 66.4941 389.811 66.4941 383.579C66.4941 377.346 158.041 372.288 271.034 372.288C384.028 372.288 475.514 377.346 475.514 383.579Z" fill="#BAD8EB"/>
</g>
<path d="M482.098 273.336C484.168 255.039 486.334 233.402 487.593 214.972L477.705 213.677C475.09 232.216 473.469 253.478 471.907 272.126L482.098 273.336Z" fill="#056CFA"/>
<path d="M487.544 214.814C487.593 215.339 487.439 215.863 487.113 216.278C486.787 216.693 486.314 216.966 485.792 217.042C485.27 217.118 484.739 216.991 484.308 216.687C483.878 216.383 483.58 215.925 483.477 215.407C483.289 215.669 483.044 215.885 482.762 216.04C482.479 216.195 482.165 216.284 481.844 216.303C481.214 216.303 480.488 215.928 480.524 215.298C480.275 215.476 479.988 215.594 479.685 215.642C479.383 215.69 479.074 215.668 478.781 215.577C478.116 215.226 478.067 214.306 477.668 213.677L483.925 201.164L487.544 214.814Z" fill="#FFC9A5"/>
<path d="M485.657 207.699C484.901 208.093 484.081 208.351 483.236 208.461C482.486 208.538 481.736 208.321 481.142 207.856C481.047 207.793 480.971 207.706 480.92 207.604C480.869 207.503 480.845 207.389 480.852 207.275L483.829 200.789L485.657 207.699Z" fill="#333E48"/>
<g style="mix-blend-mode:multiply" opacity="0.25">
<path d="M479.568 267.732L484.192 219.073" stroke="#004F7C" stroke-width="0.55" stroke-linecap="round" stroke-linejoin="round"/>
</g>
<g style="mix-blend-mode:multiply" opacity="0.25">
<path d="M475.877 267.612L480.089 217.973" stroke="#004F7C" stroke-width="0.55" stroke-linecap="round" stroke-linejoin="round"/>
</g>
<path d="M471.871 272.126L482.062 273.336L481.88 275.72L471.653 274.256L471.871 272.126Z" fill="#4D9AFD"/>
<path d="M471.653 274.256L481.88 275.72C481.88 275.72 480.888 281.553 476.047 281.166C471.472 280.742 471.653 274.256 471.653 274.256Z" fill="#F1B3BF"/>
<path d="M488.973 277.947C493.354 260.061 498.256 238.823 501.838 220.756L492.156 218.215C487.218 236.27 482.897 257.157 478.976 275.454L488.973 277.947Z" fill="#056CFA"/>
<path d="M501.85 220.659C501.86 221.204 501.652 221.731 501.273 222.124C500.894 222.516 500.375 222.742 499.829 222.752C499.283 222.762 498.756 222.554 498.364 222.175C497.971 221.796 497.745 221.277 497.735 220.731C497.515 220.965 497.246 221.148 496.946 221.265C496.647 221.382 496.325 221.431 496.005 221.409C495.387 221.409 494.71 220.864 494.794 220.199C494.522 220.336 494.222 220.407 493.917 220.407C493.612 220.407 493.312 220.336 493.039 220.199C492.422 219.775 492.495 218.855 492.168 218.178L499.974 206.561L501.85 220.659Z" fill="#FFC9A5"/>
<path d="M500.882 213.301C500.074 213.589 499.223 213.741 498.365 213.749C497.619 213.72 496.911 213.414 496.38 212.889C496.29 212.816 496.223 212.72 496.184 212.611C496.146 212.503 496.138 212.385 496.162 212.272L499.938 206.222L500.882 213.301Z" fill="#333E48"/>
<g style="mix-blend-mode:multiply" opacity="0.25">
<path d="M487.218 272.065L497.989 224.398" stroke="#004F7C" stroke-width="0.55" stroke-linecap="round" stroke-linejoin="round"/>
</g>
<g style="mix-blend-mode:multiply" opacity="0.25">
<path d="M483.574 271.485L494.055 222.789" stroke="#004F7C" stroke-width="0.55" stroke-linecap="round" stroke-linejoin="round"/>
</g>
<path d="M479.011 275.453L488.972 277.946L488.488 280.294L478.527 277.535L479.011 275.453Z" fill="#4D9AFD"/>
<path d="M478.528 277.535L488.488 280.294C488.488 280.294 486.758 285.946 482.013 284.917C477.523 283.949 478.528 277.535 478.528 277.535Z" fill="#F1B3BF"/>
<path d="M469.789 283.029C471.496 264.684 473.227 242.962 474.122 224.568L464.21 223.467C461.971 242.054 460.761 263.34 459.562 282.025L469.789 283.029Z" fill="#056CFA"/>
<path d="M474.122 224.411C472.098 224.232 470.079 224.8 468.446 226.008C467.816 226.008 467.09 225.657 467.102 225.04C466.855 225.217 466.571 225.337 466.271 225.389C465.972 225.441 465.664 225.425 465.371 225.342C464.694 225.004 464.633 224.132 464.161 223.467L470.213 210.833L474.122 224.411Z" fill="#FFC9A5"/>
<path d="M472.101 217.332C471.345 217.735 470.526 218.009 469.68 218.142C468.936 218.234 468.186 218.034 467.586 217.586C467.487 217.526 467.407 217.44 467.353 217.338C467.3 217.235 467.276 217.12 467.284 217.005L470.128 210.458L472.101 217.332Z" fill="#333E48"/>
<g style="mix-blend-mode:multiply" opacity="0.25">
<path d="M467.175 277.474L470.854 228.73" stroke="#004F7C" stroke-width="0.55" stroke-linecap="round" stroke-linejoin="round"/>
</g>
<g style="mix-blend-mode:multiply" opacity="0.25">
<path d="M463.495 277.426L466.715 227.714" stroke="#004F7C" stroke-width="0.55" stroke-linecap="round" stroke-linejoin="round"/>
</g>
<path d="M459.562 282.024L469.777 283.029L469.644 285.413L459.393 284.154L459.562 282.024Z" fill="#4D9AFD"/>
<path d="M459.393 284.154L469.644 285.364C469.644 285.364 468.772 291.221 463.931 290.895C459.332 290.641 459.393 284.154 459.393 284.154Z" fill="#F1B3BF"/>
<path d="M472.911 273.808C468.772 255.849 463.592 234.684 458.666 216.932L448.911 219.001C452.615 237.346 458.158 257.943 462.89 276.058L472.911 273.808Z" fill="#056CFA"/>
<path d="M458.605 216.786C456.645 217.264 454.924 218.438 453.764 220.09C453.183 220.32 452.36 220.174 452.179 219.582C452.003 219.832 451.772 220.038 451.503 220.183C451.234 220.328 450.935 220.408 450.63 220.417C449.891 220.308 449.54 219.461 448.947 219.001L450.63 205.108L458.605 216.786Z" fill="#FFC9A5"/>
<path d="M454.467 210.711C453.871 211.331 453.176 211.846 452.41 212.236C451.73 212.554 450.954 212.597 450.243 212.357C450.037 212.285 449.807 212.139 449.783 211.91L450.425 204.794L454.467 210.711Z" fill="#333E48"/>
<g style="mix-blend-mode:multiply" opacity="0.25">
<path d="M468.688 269.342L456.863 221.917" stroke="#004F7C" stroke-width="0.55" stroke-linecap="round" stroke-linejoin="round"/>
</g>
<g style="mix-blend-mode:multiply" opacity="0.25">
<path d="M465.178 270.456L452.627 222.244" stroke="#004F7C" stroke-width="0.55" stroke-linecap="round" stroke-linejoin="round"/>
</g>
<path d="M462.891 276.046L472.912 273.808L473.529 276.107L463.399 278.128L462.891 276.046Z" fill="#4D9AFD"/>
<path d="M463.398 278.128L473.529 276.107C473.529 276.107 474.533 281.94 469.837 283.162C465.371 284.312 463.398 278.128 463.398 278.128Z" fill="#F1B3BF"/>
<path d="M501.85 242.429H449.783V320.083H501.85V242.429Z" fill="#CEA2DD"/>
<g style="mix-blend-mode:multiply" opacity="0.58">
<path d="M501.85 242.429H449.783V249.084H501.85V242.429Z" fill="#CEA2DD"/>
</g>
<path d="M102.343 265.337C104.679 261.308 105.454 255.995 105.647 251.348C105.938 243.966 100.685 236.512 103.323 229.566C105.454 223.999 112.147 220.901 113.502 215.044C114.712 209.599 110.767 204.25 110.706 198.659C110.646 193.068 114.616 187.308 112.631 182.008C112.412 181.372 112.047 180.795 111.566 180.326C111.084 179.968 110.53 179.72 109.943 179.599C109.355 179.477 108.748 179.486 108.165 179.624C102.331 180.604 99.7652 187.429 95.2266 191.229C88.812 196.59 78.113 196.07 73.5017 203.004C70.4639 207.602 71.42 213.689 72.7755 219.05C74.1311 224.411 75.7287 230.159 73.6954 235.29C71.6621 240.421 66.2641 243.761 63.3957 248.601C59.9464 254.458 60.6968 262.251 64.4487 267.963C68.2006 273.675 74.5668 277.257 81.2234 278.625C81.2234 278.661 92.8907 281.722 102.343 265.337Z" fill="#8EC152"/>
<path d="M107.596 187.646L107.015 188.699C106.652 189.401 106.083 190.405 105.417 191.7C104.751 192.995 103.977 194.568 103.118 196.42C102.258 198.271 101.302 200.341 100.322 202.64L98.7726 206.27L97.1992 210.143C96.11 212.793 95.0933 215.637 93.9556 218.613C92.818 221.59 91.765 224.579 90.7483 227.714C89.7317 230.848 88.7029 234.006 87.7347 237.201C86.7665 240.396 85.8708 243.603 84.9873 246.761C84.1038 249.919 83.3292 253.054 82.712 256.115L81.7074 260.605L80.8844 264.937C80.3035 267.745 79.9404 270.419 79.5773 272.888C79.2142 275.356 78.9721 277.631 78.7422 279.64C78.6333 280.657 78.5364 281.601 78.4396 282.472C78.3428 283.343 78.3428 284.154 78.3065 284.892C78.1491 287.796 78.0644 289.454 78.0644 289.454C78.0346 289.642 77.9371 289.811 77.7906 289.931C77.644 290.051 77.4584 290.114 77.269 290.106C77.0796 290.099 76.8995 290.022 76.7629 289.891C76.6262 289.76 76.5424 289.583 76.5273 289.394C76.5273 289.394 76.5273 287.712 76.6121 284.759C76.6121 284.021 76.6121 283.21 76.6121 282.339C76.6121 281.468 76.7452 280.499 76.8178 279.471C76.963 277.426 77.0841 275.102 77.4593 272.609C77.8345 270.116 78.1007 267.37 78.6696 264.526C78.9116 263.098 79.1658 261.633 79.42 260.133L80.3882 255.595C81.0054 252.497 81.8648 249.351 82.6393 246.132C83.0508 244.522 83.5229 242.925 83.9707 241.291C84.4185 239.658 84.8421 238.048 85.3746 236.451C86.3792 233.244 87.3837 230.037 88.4851 226.915C89.5865 223.793 90.712 220.731 91.7892 217.778C92.8664 214.826 94.0525 212.006 95.2022 209.308C95.7832 207.976 96.3399 206.682 96.8724 205.435L98.5063 201.865C99.5351 199.554 100.612 197.509 101.532 195.669C102.452 193.83 103.348 192.269 104.037 190.962C104.727 189.655 105.357 188.699 105.744 188.021L106.361 186.981C106.409 186.901 106.471 186.831 106.546 186.776C106.62 186.72 106.705 186.68 106.795 186.658C106.885 186.635 106.978 186.631 107.07 186.645C107.162 186.659 107.25 186.691 107.329 186.739C107.477 186.831 107.585 186.975 107.634 187.142C107.683 187.309 107.67 187.489 107.596 187.646Z" fill="#5DA258"/>
<path d="M30.4514 261.598C28.2002 257.459 27.5467 252.062 27.4741 247.342C27.3651 239.864 32.8841 232.446 30.3788 225.391C28.3697 219.703 21.6767 216.399 20.4543 210.494C19.244 204.939 23.5043 199.603 23.71 193.964C23.9158 188.324 20.0791 182.383 22.1972 177.022C22.3464 176.569 22.5835 176.15 22.8948 175.788C23.2062 175.427 23.5857 175.13 24.0117 174.916C24.4377 174.701 24.9018 174.572 25.3775 174.537C25.8532 174.502 26.3312 174.561 26.7842 174.71C32.6541 175.848 35.0868 182.83 39.577 186.812C45.9311 192.415 56.7754 192.088 61.2656 199.276C64.2187 204.02 63.0931 210.167 61.5923 215.54C60.0916 220.913 58.3124 226.722 60.2368 231.974C62.1612 237.226 67.4986 240.699 70.3186 245.684C73.659 251.735 72.7392 259.577 68.7573 265.216C64.7754 270.855 58.2761 274.377 51.4985 275.611C51.4985 275.611 39.6012 278.418 30.4514 261.598Z" fill="#5DA258"/>
<path d="M28.4054 182.116L28.9985 183.193C29.3857 183.883 29.9667 184.887 30.6566 186.207C31.3464 187.526 32.1815 189.159 33.0772 191.047C33.9728 192.935 34.9894 195.028 35.9698 197.4C36.466 198.61 36.9864 199.82 37.531 201.031C38.0757 202.241 38.5719 203.632 39.1165 204.988C40.2179 207.698 41.2709 210.603 42.3601 213.604C43.4494 216.605 44.4903 219.739 45.4585 222.946C46.4267 226.153 47.4434 229.408 48.3753 232.627C48.8715 234.261 49.2467 235.919 49.6703 237.564C50.0939 239.21 50.5175 240.844 50.8806 242.477C51.5826 245.757 52.3814 248.964 52.926 252.158C53.2165 253.72 53.507 255.269 53.7853 256.781C54.0637 258.294 54.2211 259.794 54.4389 261.247C54.8988 264.139 55.153 266.898 55.4071 269.451C55.6613 272.005 55.7823 274.292 55.8913 276.422C55.8913 277.462 55.976 278.43 56.0244 279.326C56.0728 280.221 56.0244 281.056 56.0244 281.807V286.502C56.0244 286.707 55.9428 286.904 55.7975 287.05C55.6523 287.195 55.4552 287.276 55.2498 287.276C55.0444 287.276 54.8474 287.195 54.7021 287.05C54.5568 286.904 54.4752 286.707 54.4752 286.502L54.3421 281.867C54.3421 281.141 54.3421 280.318 54.3421 279.447C54.3421 278.576 54.1847 277.607 54.1 276.579C53.9185 274.534 53.7853 272.222 53.4344 269.717C53.0834 267.212 52.8292 264.49 52.3209 261.634C52.0788 260.194 51.8368 258.729 51.5947 257.229L50.6991 252.655C50.1423 249.545 49.3435 246.374 48.6295 243.119C47.9154 239.864 47.0077 236.62 46.1 233.365C45.1922 230.11 44.2966 226.867 43.2921 223.684C42.2875 220.502 41.2709 217.404 40.2784 214.39C39.286 211.377 38.2572 208.497 37.2164 205.786C36.6959 204.431 36.1997 203.112 35.7156 201.829L34.239 198.199C33.3071 195.779 32.3631 193.721 31.5764 191.822C30.7897 189.922 29.9788 188.336 29.3615 186.981C28.7443 185.626 28.1512 184.621 27.8245 183.907L27.2677 182.818C27.2156 182.662 27.2198 182.493 27.2796 182.34C27.3394 182.187 27.4511 182.06 27.5951 181.98C27.7392 181.901 27.9064 181.875 28.0678 181.907C28.2291 181.938 28.3743 182.025 28.478 182.153L28.4054 182.116Z" fill="#8EC152"/>
<path d="M105.296 312.266H32.8114L26.3848 283.622H110.561L105.296 312.266Z" fill="#CEA2DD"/>
<path d="M35.4375 312.266L45.9671 351.135H92.733L102.089 312.266H35.4375Z" fill="#CEA2DD"/>
<g style="mix-blend-mode:multiply" opacity="0.58">
<path d="M89.4773 351.135H92.733L102.064 312.266H35.498C35.498 312.266 81.8766 313.536 89.4773 351.135Z" fill="#CEA2DD"/>
</g>
<path d="M84.8779 355.987H453.05V373.002C453.05 374.13 452.828 375.247 452.396 376.29C451.965 377.332 451.332 378.279 450.534 379.077C449.736 379.875 448.788 380.508 447.746 380.94C446.703 381.371 445.586 381.594 444.457 381.594H93.0353C90.8719 381.594 88.797 380.734 87.2672 379.205C85.7374 377.675 84.8779 375.601 84.8779 373.437V355.987Z" fill="#056CFA"/>
<path d="M117.12 152.892H419.695C423.38 152.892 426.914 154.355 429.519 156.961C432.125 159.566 433.589 163.099 433.589 166.784V355.987H104.388V165.707C104.381 164.029 104.706 162.367 105.342 160.815C105.979 159.263 106.915 157.851 108.098 156.661C109.28 155.471 110.686 154.525 112.234 153.878C113.782 153.232 115.442 152.896 117.12 152.892Z" fill="#4D9AFD"/>
<path d="M420.082 166.288H118.21V343.778H420.082V166.288Z" fill="#F5FFFE"/>
<path opacity="0.27" d="M118.21 343.79H420.082V166.288C420.082 166.288 408.415 335.742 118.21 343.79Z" fill="#82C3E2"/>
<path d="M401.032 182.298H136.062V332.632H401.032V182.298Z" stroke="#ADD4F2" stroke-width="1.06" stroke-miterlimit="10"/>
<path d="M401.504 181.705H135.577V193.008H401.504V181.705Z" fill="#4D9AFD"/>
<path d="M145.636 187.357C145.636 187.718 145.528 188.071 145.328 188.372C145.127 188.672 144.841 188.906 144.507 189.045C144.173 189.183 143.806 189.219 143.451 189.149C143.097 189.078 142.771 188.904 142.516 188.649C142.26 188.393 142.086 188.068 142.016 187.713C141.945 187.359 141.981 186.991 142.12 186.657C142.258 186.323 142.492 186.038 142.793 185.837C143.093 185.636 143.447 185.529 143.808 185.529C144.293 185.529 144.758 185.722 145.1 186.064C145.443 186.407 145.636 186.872 145.636 187.357Z" fill="white"/>
<path d="M151.045 187.357C150.994 187.802 150.78 188.213 150.446 188.511C150.111 188.809 149.678 188.974 149.23 188.974C148.782 188.974 148.349 188.809 148.014 188.511C147.679 188.213 147.466 187.802 147.414 187.357C147.385 187.101 147.41 186.841 147.487 186.596C147.565 186.35 147.694 186.123 147.865 185.931C148.037 185.739 148.247 185.585 148.482 185.479C148.717 185.374 148.972 185.319 149.23 185.319C149.488 185.319 149.742 185.374 149.978 185.479C150.213 185.585 150.423 185.739 150.594 185.931C150.766 186.123 150.895 186.35 150.972 186.596C151.05 186.841 151.075 187.101 151.045 187.357Z" fill="white"/>
<path d="M157.036 187.357C157.036 187.718 156.929 188.071 156.728 188.372C156.527 188.672 156.242 188.906 155.908 189.045C155.574 189.183 155.206 189.219 154.852 189.149C154.497 189.078 154.172 188.904 153.916 188.649C153.661 188.393 153.486 188.068 153.416 187.713C153.345 187.359 153.382 186.991 153.52 186.657C153.658 186.323 153.893 186.038 154.193 185.837C154.494 185.636 154.847 185.529 155.208 185.529C155.693 185.529 156.158 185.722 156.501 186.064C156.843 186.407 157.036 186.872 157.036 187.357Z" fill="white"/>
<path d="M295.99 362.607H239.275V375.737H295.99V362.607Z" fill="#4D9AFD"/>
<g style="mix-blend-mode:multiply" opacity="0.59">
<path d="M439.846 417.437C496.816 417.437 543 412.382 543 406.147C543 399.911 496.816 394.856 439.846 394.856C382.876 394.856 336.692 399.911 336.692 406.147C336.692 412.382 382.876 417.437 439.846 417.437Z" fill="#BAD8EB"/>
</g>
<path d="M515.611 374.055C515.611 374.055 508.591 384.22 515.611 403.848H359.579V374.055H515.611Z" fill="#E9F0F3"/>
<g style="mix-blend-mode:multiply" opacity="0.37">
<path d="M384.149 403.739H361.068V374.696H384.161C384.161 374.696 372.736 386.919 384.149 403.739Z" fill="#A4C6D3"/>
</g>
<path d="M524.023 372.3V372.651C524.023 373.112 523.932 373.567 523.755 373.992C523.579 374.418 523.32 374.804 522.994 375.129C522.668 375.453 522.281 375.711 521.855 375.886C521.429 376.061 520.973 376.15 520.513 376.149H377.589C374.857 376.149 372.237 377.234 370.306 379.165C368.374 381.096 367.289 383.716 367.289 386.447V390.234C367.289 391.609 367.56 392.969 368.086 394.238C368.613 395.508 369.384 396.661 370.356 397.632C371.328 398.603 372.483 399.373 373.753 399.898C375.023 400.422 376.384 400.692 377.758 400.69H520.573C521.504 400.69 522.397 401.06 523.055 401.718C523.713 402.376 524.083 403.269 524.083 404.199C524.083 405.13 523.713 406.023 523.055 406.681C522.397 407.339 521.504 407.709 520.573 407.709H365.74C361.965 407.709 358.345 406.209 355.676 403.541C353.006 400.872 351.507 397.252 351.507 393.478V384.91C351.507 382.792 351.924 380.695 352.735 378.739C353.546 376.782 354.735 375.005 356.233 373.508C357.731 372.011 359.51 370.824 361.467 370.015C363.424 369.205 365.522 368.789 367.64 368.791H520.513C521.444 368.791 522.336 369.161 522.995 369.819C523.653 370.477 524.023 371.37 524.023 372.3Z" fill="#CEA2DD"/>
<path d="M532.93 335.137C532.93 335.137 525.923 345.302 532.93 364.93H376.923V335.137H532.93Z" fill="#E9F0F3"/>
<g style="mix-blend-mode:multiply" opacity="0.37">
<path d="M401.492 364.821H378.399V335.778H401.492C401.492 335.778 390.115 348.001 401.492 364.821Z" fill="#A4C6D3"/>
</g>
<path d="M541.402 333.382V333.733C541.402 334.664 541.033 335.557 540.374 336.215C539.716 336.873 538.823 337.243 537.892 337.243H394.956C392.225 337.243 389.605 338.328 387.673 340.259C385.742 342.19 384.657 344.81 384.657 347.541V351.353C384.657 354.127 385.758 356.787 387.719 358.75C389.679 360.713 392.339 361.817 395.114 361.82H537.929C538.389 361.819 538.845 361.908 539.271 362.083C539.697 362.258 540.084 362.515 540.41 362.84C540.736 363.165 540.995 363.551 541.171 363.976C541.348 364.402 541.439 364.857 541.439 365.318C541.439 366.248 541.069 367.141 540.411 367.799C539.752 368.457 538.86 368.827 537.929 368.827H383.083C379.312 368.827 375.694 367.329 373.028 364.662C370.361 361.996 368.862 358.379 368.862 354.608V346.028C368.862 341.753 370.561 337.653 373.584 334.63C376.607 331.608 380.708 329.909 384.983 329.909H537.868C538.797 329.903 539.691 330.265 540.353 330.916C541.015 331.567 541.393 332.454 541.402 333.382Z" fill="#FEC456"/>
<path d="M525.366 296.22C525.366 296.22 518.358 306.385 525.366 326.025H369.334V296.22H525.366Z" fill="#E9F0F3"/>
<g style="mix-blend-mode:multiply" opacity="0.37">
<path d="M393.903 325.941H370.811V296.897H393.903C393.903 296.897 382.502 309.096 393.903 325.941Z" fill="#A4C6D3"/>
</g>
<path d="M533.789 294.477V294.828C533.789 295.759 533.419 296.651 532.761 297.31C532.103 297.968 531.21 298.337 530.279 298.337H387.355C384.624 298.337 382.004 299.422 380.072 301.354C378.141 303.285 377.056 305.904 377.056 308.636V312.411C377.056 315.187 378.159 317.85 380.122 319.813C382.085 321.776 384.748 322.879 387.525 322.879H530.34C530.8 322.877 531.256 322.967 531.682 323.142C532.108 323.317 532.495 323.574 532.821 323.899C533.147 324.224 533.406 324.61 533.582 325.035C533.759 325.46 533.85 325.916 533.85 326.376C533.85 327.307 533.48 328.199 532.822 328.858C532.164 329.516 531.271 329.885 530.34 329.885H375.494C371.723 329.885 368.106 328.387 365.439 325.721C362.772 323.054 361.273 319.438 361.273 315.666V307.099C361.272 304.981 361.688 302.884 362.497 300.927C363.307 298.97 364.494 297.191 365.991 295.693C367.488 294.195 369.266 293.007 371.222 292.196C373.179 291.385 375.276 290.968 377.395 290.968H530.279C531.21 290.968 532.103 291.338 532.761 291.996C533.419 292.654 533.789 293.546 533.789 294.477Z" fill="#1D65B7"/>
<g style="mix-blend-mode:multiply" opacity="0.59">
<path d="M82.4096 422C126.419 422 162.096 417.634 162.096 412.247C162.096 406.86 126.419 402.493 82.4096 402.493C38.4003 402.493 2.72363 406.86 2.72363 412.247C2.72363 417.634 38.4003 422 82.4096 422Z" fill="#BAD8EB"/>
</g>
<path d="M136.073 350.748H24.4961V413.784H136.073V350.748Z" fill="#1D65B7"/>
<g style="mix-blend-mode:multiply" opacity="0.51">
<path d="M109.762 413.784H136.073V350.748H24.4961C24.4961 350.748 95.9037 354.161 109.762 413.784Z" fill="#1D65B7"/>
</g>
<path d="M160.57 343.947H0V350.748H160.57V343.947Z" fill="#1D65B7"/>
<path d="M160.57 343.947H0V350.748H160.57V343.947Z" fill="#1D65B7"/>
<path d="M9.07768 378.762C8.72669 369.928 8.83562 359.909 8.87193 349.719C8.87193 348.134 8.7267 341.442 12.9022 341.006C13.2949 340.96 13.6929 341.002 14.0676 341.128C14.4422 341.255 14.7842 341.462 15.069 341.737C15.3537 342.011 15.5741 342.345 15.7142 342.715C15.8544 343.084 15.9109 343.48 15.8796 343.874" stroke="#F2BC57" stroke-width="2.38" stroke-miterlimit="10"/>
<path d="M9.64649 377.492C9.96339 377.462 10.2823 377.524 10.5639 377.673C10.8456 377.821 11.0778 378.048 11.232 378.327C11.5206 378.891 11.6857 379.509 11.7161 380.142C11.9845 382.682 11.956 385.245 11.6314 387.778C11.6171 387.989 11.5505 388.192 11.4377 388.371C11.3444 388.472 11.2205 388.54 11.085 388.564C10.9494 388.588 10.8098 388.567 10.6873 388.504C10.5712 388.428 10.4841 388.315 10.4402 388.183C10.3962 388.051 10.398 387.909 10.4453 387.778C10.3364 388.177 10.2153 388.565 10.1064 388.988C10.0522 389.289 9.90382 389.564 9.6828 389.775C9.45328 389.913 9.17923 389.958 8.9177 389.899C8.65618 389.84 8.42734 389.683 8.27885 389.46C7.99883 389.005 7.8482 388.482 7.84315 387.947C7.78795 388.031 7.71496 388.101 7.62943 388.153C7.54389 388.205 7.44793 388.237 7.34843 388.247C7.24892 388.258 7.14835 388.246 7.05393 388.213C6.9595 388.18 6.87357 388.126 6.80229 388.056C6.53208 387.742 6.37822 387.345 6.36658 386.931C6.08024 384.894 6.03555 382.831 6.23345 380.783C6.25842 379.867 6.52567 378.973 7.00804 378.194C7.26176 377.807 7.63991 377.518 8.08002 377.375C8.52013 377.232 8.99586 377.243 9.42863 377.407" fill="#F2BC57"/>
<path d="M477.752 158.482C475.053 148.741 486.527 139.423 486.527 139.423C499.308 126.716 498.206 116.43 498.206 116.43C495.52 93.922 471.495 93.8978 471.495 93.8978C471.495 93.8978 446.079 91.6711 441.673 115.305C441.673 115.305 439.253 127.116 447.229 136.761C455.205 146.405 459.707 146.744 457.31 158.543" fill="#FEC456"/>
<path d="M479.242 136.785C479.242 136.785 478.988 137.1 478.576 137.693C478.165 138.286 477.596 139.157 476.93 140.21C476.616 140.742 476.253 141.299 475.926 141.94C475.599 142.582 475.236 143.223 474.909 143.913C474.582 144.603 474.243 145.341 473.917 146.079C473.59 146.817 473.348 147.604 473.069 148.378C472.791 149.153 472.573 149.939 472.404 150.714C472.219 151.48 472.078 152.255 471.98 153.037C471.87 153.763 471.805 154.494 471.787 155.228C471.738 155.88 471.738 156.536 471.787 157.188C471.847 157.793 471.895 158.398 471.944 158.846C471.992 159.294 472.137 159.754 472.21 160.056L472.44 161.157C472.462 161.26 472.442 161.367 472.386 161.455C472.329 161.544 472.24 161.606 472.137 161.629C472.09 161.642 472.04 161.645 471.991 161.639C471.942 161.632 471.895 161.616 471.852 161.592C471.81 161.567 471.772 161.534 471.742 161.495C471.712 161.455 471.69 161.411 471.678 161.363C471.678 161.363 471.544 160.952 471.327 160.238C471.23 159.875 471.072 159.439 470.951 158.931C470.83 158.422 470.794 157.817 470.697 157.188C470.616 156.497 470.58 155.802 470.588 155.107C470.578 154.33 470.626 153.553 470.734 152.783C470.831 151.969 470.972 151.161 471.157 150.363C471.327 149.54 471.605 148.717 471.835 147.943C472.065 147.168 472.416 146.333 472.755 145.522C473.094 144.712 473.433 143.998 473.808 143.308C474.183 142.618 474.558 141.928 474.933 141.299C475.308 140.67 475.708 140.089 476.047 139.569C476.842 138.401 477.715 137.29 478.661 136.241C478.694 136.206 478.733 136.179 478.777 136.16C478.821 136.141 478.868 136.132 478.915 136.132C478.963 136.132 479.01 136.141 479.053 136.16C479.097 136.179 479.137 136.206 479.169 136.241C479.213 136.269 479.25 136.307 479.278 136.351C479.305 136.395 479.323 136.445 479.33 136.496C479.337 136.548 479.333 136.601 479.318 136.65C479.302 136.7 479.277 136.746 479.242 136.785Z" fill="white"/>
<path d="M456.161 135.95C456.161 135.95 456.5 136.253 457.033 136.821C457.784 137.603 458.479 138.436 459.115 139.314C460.02 140.549 460.829 141.852 461.535 143.211C461.898 143.973 462.261 144.76 462.588 145.631C462.915 146.466 463.194 147.318 463.423 148.185L463.75 149.504C463.823 149.939 463.883 150.387 463.944 150.835C464.083 151.695 464.152 152.565 464.149 153.437C464.191 154.245 464.158 155.055 464.053 155.857C464.053 156.244 463.968 156.619 463.931 156.982C463.895 157.345 463.786 157.684 463.714 158.011C463.556 158.664 463.459 159.221 463.278 159.802L462.794 161.133C462.528 161.871 462.37 162.343 462.37 162.343C462.351 162.393 462.323 162.438 462.287 162.476C462.25 162.515 462.207 162.546 462.158 162.567C462.11 162.588 462.057 162.6 462.005 162.601C461.952 162.602 461.899 162.592 461.85 162.573C461.759 162.538 461.684 162.47 461.639 162.383C461.594 162.296 461.583 162.196 461.608 162.101L461.934 160.951C462.043 160.588 462.164 160.153 462.322 159.657C462.479 159.16 462.515 158.555 462.636 157.926C462.697 157.611 462.758 157.273 462.818 156.934L462.879 155.869C462.934 155.099 462.934 154.327 462.879 153.558C462.871 152.746 462.795 151.936 462.649 151.137C462.649 150.714 462.528 150.29 462.455 149.927L462.14 148.717C461.934 147.897 461.683 147.09 461.39 146.297C461.087 145.498 460.748 144.736 460.41 144.01C460.071 143.284 459.72 142.582 459.332 141.952C458.945 141.323 458.594 140.742 458.231 140.161C457.662 139.287 457.048 138.443 456.391 137.632C455.907 137.039 455.617 136.737 455.617 136.737C455.582 136.704 455.555 136.665 455.536 136.621C455.517 136.577 455.508 136.53 455.508 136.483C455.508 136.435 455.517 136.388 455.536 136.344C455.555 136.301 455.582 136.261 455.617 136.229C455.684 136.166 455.773 136.131 455.865 136.131C455.957 136.131 456.046 136.166 456.113 136.229L456.161 135.95Z" fill="white"/>
<path d="M476.797 139.774L476.652 139.858C476.487 139.948 476.313 140.017 476.132 140.064C475.462 140.224 474.758 140.151 474.135 139.858C473.674 139.623 473.264 139.299 472.93 138.904C472.595 138.509 472.342 138.052 472.186 137.559C471.962 136.957 471.871 136.312 471.92 135.671C471.95 135.256 472.106 134.859 472.368 134.535C472.629 134.21 472.984 133.973 473.384 133.856C473.625 133.801 473.875 133.8 474.116 133.855C474.357 133.909 474.582 134.017 474.776 134.171C475.156 134.475 475.417 134.904 475.514 135.381C475.639 136.226 475.45 137.087 474.982 137.801C474.521 138.566 473.875 139.203 473.102 139.651C472.33 140.1 471.457 140.346 470.564 140.367C470.325 140.371 470.085 140.351 469.85 140.306C469.723 140.291 469.598 140.267 469.475 140.233L469.172 140.149C468.703 139.98 468.266 139.735 467.877 139.423C467.105 138.805 466.55 137.957 466.292 137.002C466.152 136.507 466.115 135.988 466.183 135.478C466.183 135.345 466.183 135.224 466.255 135.09V134.885V134.727C466.361 134.461 466.499 134.209 466.667 133.977C466.851 133.723 467.088 133.513 467.362 133.36C467.636 133.208 467.94 133.117 468.252 133.094C468.593 133.098 468.925 133.201 469.209 133.39C469.492 133.579 469.715 133.846 469.85 134.159C470.075 134.655 470.17 135.201 470.128 135.744C470.142 136.22 470.097 136.695 469.995 137.16C469.69 138.078 469.167 138.909 468.47 139.58C467.782 140.234 466.941 140.706 466.023 140.953C465.106 141.201 464.142 141.215 463.218 140.996C462.316 140.836 461.482 140.413 460.821 139.78C460.16 139.147 459.701 138.332 459.502 137.438C459.436 136.998 459.465 136.548 459.588 136.12C459.712 135.692 459.926 135.295 460.216 134.957C460.506 134.614 460.887 134.361 461.316 134.228C461.745 134.095 462.204 134.088 462.637 134.207C463.043 134.3 463.414 134.506 463.707 134.802C464.001 135.098 464.205 135.47 464.295 135.877C464.355 136.55 464.198 137.224 463.847 137.801C463.405 138.708 462.744 139.49 461.923 140.076C461.392 140.443 460.796 140.705 460.168 140.851C459.949 140.903 459.726 140.94 459.502 140.96C459.41 140.943 459.326 140.895 459.265 140.823C459.205 140.751 459.172 140.66 459.172 140.566C459.172 140.472 459.205 140.381 459.265 140.31C459.326 140.238 459.41 140.189 459.502 140.173C459.694 140.145 459.884 140.105 460.071 140.052C460.592 139.914 461.081 139.676 461.511 139.35C462.169 138.828 462.692 138.156 463.036 137.39C463.275 136.993 463.385 136.532 463.351 136.071C463.286 135.869 463.169 135.688 463.011 135.546C462.854 135.403 462.662 135.305 462.455 135.26C462.224 135.199 461.98 135.208 461.754 135.285C461.528 135.363 461.329 135.506 461.184 135.696C461.004 135.916 460.875 136.173 460.804 136.449C460.733 136.725 460.722 137.013 460.773 137.293C460.969 137.93 461.337 138.501 461.837 138.943C462.337 139.385 462.948 139.681 463.605 139.798C464.321 139.967 465.067 139.967 465.783 139.798L466.316 139.628C466.49 139.554 466.66 139.469 466.824 139.374C467.148 139.194 467.445 138.97 467.708 138.709C468.262 138.175 468.677 137.515 468.918 136.785C469.147 136.106 469.147 135.37 468.918 134.691C468.676 134.219 468.337 134.231 467.877 134.691C467.79 134.814 467.713 134.943 467.647 135.078V135.224V135.332C467.642 135.417 467.642 135.502 467.647 135.587C467.601 135.934 467.621 136.287 467.708 136.627C467.916 137.335 468.339 137.961 468.918 138.418C469.184 138.627 469.477 138.799 469.79 138.927L470.092 139.023H470.322C470.495 139.041 470.67 139.041 470.843 139.023C471.529 139.007 472.201 138.823 472.8 138.488C473.399 138.153 473.907 137.676 474.28 137.099C474.641 136.617 474.809 136.017 474.752 135.417C474.655 134.957 474.219 134.619 473.905 134.715C473.701 134.78 473.522 134.905 473.39 135.074C473.258 135.242 473.18 135.446 473.166 135.659C473.114 136.15 473.172 136.646 473.336 137.111C473.438 137.503 473.619 137.87 473.866 138.19C474.114 138.51 474.423 138.777 474.776 138.975C475.221 139.211 475.735 139.284 476.228 139.181C476.348 139.153 476.465 139.117 476.579 139.072L476.725 138.987C476.812 138.944 476.912 138.936 477.004 138.966C477.097 138.995 477.174 139.059 477.221 139.144C477.262 139.172 477.298 139.208 477.325 139.249C477.353 139.291 477.372 139.337 477.381 139.386C477.391 139.435 477.391 139.485 477.381 139.534C477.371 139.583 477.351 139.629 477.324 139.671C477.296 139.712 477.26 139.748 477.219 139.775C477.177 139.803 477.131 139.822 477.082 139.831C477.033 139.841 476.983 139.841 476.934 139.831C476.885 139.821 476.838 139.801 476.797 139.774Z" fill="white"/>
<path d="M507.768 105.491C507.535 105.818 507.272 106.122 506.982 106.399C506.349 107.002 505.646 107.526 504.888 107.96C504.127 108.397 503.314 108.735 502.467 108.964C502.073 109.079 501.667 109.148 501.257 109.17C501.084 109.174 500.914 109.126 500.769 109.032C500.624 108.938 500.511 108.802 500.444 108.643C500.378 108.483 500.361 108.307 500.396 108.138C500.43 107.969 500.515 107.814 500.64 107.694C500.922 107.44 501.222 107.206 501.535 106.992C502.203 106.552 502.894 106.148 503.605 105.782C504.379 105.37 505.178 104.995 505.795 104.741C506.152 104.593 506.515 104.464 506.885 104.354C507.084 104.302 507.295 104.329 507.474 104.431C507.653 104.533 507.784 104.701 507.841 104.898C507.871 105.004 507.878 105.115 507.861 105.224C507.845 105.332 507.805 105.436 507.744 105.528L507.768 105.491Z" fill="#4D9AFD"/>
<path d="M499.224 93.5953C499.101 93.982 498.939 94.355 498.74 94.7087C498.33 95.4892 497.826 96.2167 497.239 96.8748C496.663 97.5356 496.013 98.1284 495.302 98.6416C494.97 98.8839 494.613 99.0907 494.237 99.2587C494.029 99.3434 493.795 99.3426 493.587 99.2566C493.378 99.1706 493.212 99.0062 493.124 98.7989C493.076 98.6861 493.051 98.5646 493.051 98.4419C493.051 98.3192 493.076 98.1977 493.124 98.0849C493.306 97.7398 493.512 97.4082 493.741 97.0926C494.227 96.4207 494.752 95.7782 495.315 95.1685C495.874 94.5503 496.472 93.9682 497.106 93.4259C497.626 92.9903 498.038 92.7119 498.038 92.7119C498.169 92.6093 498.33 92.5519 498.497 92.5481C498.664 92.5443 498.827 92.5943 498.963 92.6908C499.099 92.7874 499.2 92.9251 499.251 93.0837C499.303 93.2423 499.302 93.4133 499.248 93.5711L499.224 93.5953Z" fill="#4D9AFD"/>
<path d="M484.639 84.9556C484.671 85.326 484.671 85.6985 484.639 86.0689C484.584 86.8655 484.438 87.6531 484.204 88.4165C483.98 89.1786 483.663 89.9102 483.26 90.5948C483.077 90.9185 482.863 91.2226 482.618 91.5024C482.456 91.6591 482.239 91.7467 482.013 91.7467C481.787 91.7467 481.57 91.6591 481.408 91.5024C481.242 91.339 481.147 91.1177 481.142 90.8852C481.141 90.5245 481.169 90.1643 481.226 89.8082C481.35 89.0559 481.537 88.3151 481.783 87.5936C482.019 86.8665 482.31 86.1586 482.654 85.4759C482.815 85.1512 483.001 84.8396 483.211 84.5441C483.272 84.4606 483.349 84.3899 483.438 84.3361C483.526 84.2823 483.624 84.2466 483.727 84.2308C483.829 84.2151 483.934 84.2197 484.034 84.2444C484.135 84.2691 484.229 84.3134 484.313 84.3747C484.478 84.5032 484.59 84.6886 484.627 84.8951L484.639 84.9556Z" fill="#4D9AFD"/>
<path d="M464.439 81.6149C464.624 81.9414 464.774 82.2861 464.887 82.6435C465.153 83.3939 465.348 84.1678 465.468 84.9549C465.594 85.755 465.639 86.5659 465.601 87.3751C465.591 87.7455 465.546 88.1141 465.468 88.4763C465.441 88.586 465.393 88.6893 465.326 88.7804C465.259 88.8714 465.175 88.9483 465.078 89.0068C464.981 89.0652 464.874 89.104 464.762 89.121C464.651 89.1379 464.537 89.1327 464.427 89.1056C464.2 89.0498 464.004 88.9062 463.883 88.7063C463.709 88.3763 463.563 88.0322 463.447 87.6776C463.208 86.9199 463.038 86.1423 462.939 85.3542C462.827 84.5526 462.798 83.7414 462.854 82.9339C462.871 82.5594 462.92 82.1871 462.999 81.8206C463.051 81.6179 463.18 81.4435 463.358 81.3349C463.537 81.2263 463.751 81.1921 463.955 81.2397C464.057 81.2654 464.153 81.312 464.237 81.3766C464.32 81.4412 464.389 81.5223 464.439 81.6149Z" fill="#4D9AFD"/>
<path d="M447.762 87.6903C448 87.9248 448.227 88.1712 448.44 88.4285C448.815 88.8641 449.263 89.445 449.65 90.0501C450.038 90.6551 450.449 91.2602 450.727 91.7805C450.884 92.0698 451.021 92.369 451.139 92.676C451.198 92.8343 451.21 93.0065 451.172 93.1713C451.134 93.336 451.048 93.4859 450.926 93.6022C450.803 93.7184 450.648 93.7959 450.482 93.8249C450.315 93.8539 450.144 93.8331 449.989 93.7651C449.66 93.6146 449.351 93.4235 449.069 93.1964C448.464 92.7056 447.941 92.1215 447.52 91.4659C447.095 90.8129 446.773 90.0987 446.564 89.3482C446.459 89.0027 446.402 88.6444 446.395 88.2833C446.4 88.1313 446.448 87.984 446.534 87.8585C446.619 87.7331 446.739 87.6347 446.879 87.575C447.019 87.5153 447.173 87.4967 447.323 87.5214C447.473 87.5461 447.613 87.6131 447.726 87.7145L447.762 87.6903Z" fill="#4D9AFD"/>
<path d="M435.174 100.372C435.508 100.453 435.836 100.558 436.155 100.687C436.816 100.955 437.459 101.266 438.079 101.619C438.697 101.978 439.288 102.382 439.846 102.829C440.11 103.035 440.357 103.261 440.584 103.507C440.695 103.635 440.766 103.793 440.788 103.961C440.811 104.129 440.784 104.299 440.71 104.452C440.637 104.605 440.521 104.733 440.376 104.821C440.231 104.909 440.064 104.952 439.894 104.947C439.537 104.923 439.184 104.858 438.841 104.753C438.11 104.535 437.41 104.221 436.76 103.821C436.105 103.423 435.503 102.943 434.968 102.393C434.717 102.143 434.498 101.862 434.315 101.558C434.263 101.468 434.229 101.369 434.216 101.267C434.202 101.164 434.209 101.059 434.236 100.959C434.263 100.859 434.31 100.765 434.373 100.683C434.436 100.601 434.515 100.533 434.605 100.481C434.688 100.426 434.781 100.387 434.879 100.369C434.976 100.35 435.077 100.351 435.174 100.372Z" fill="#4D9AFD"/>
<path d="M430.963 112.885C431.287 112.797 431.62 112.749 431.955 112.74C432.671 112.709 433.387 112.774 434.086 112.934C434.785 113.095 435.458 113.355 436.083 113.708C436.374 113.871 436.646 114.066 436.893 114.289C437.01 114.406 437.092 114.554 437.129 114.715C437.166 114.877 437.157 115.045 437.102 115.202C437.048 115.358 436.951 115.496 436.822 115.6C436.693 115.704 436.537 115.77 436.373 115.789C436.059 115.815 435.743 115.815 435.429 115.789C434.77 115.727 434.118 115.606 433.48 115.426C432.841 115.257 432.214 115.043 431.604 114.785C431.311 114.657 431.028 114.508 430.757 114.337C430.582 114.221 430.459 114.041 430.413 113.836C430.368 113.63 430.405 113.415 430.515 113.236C430.619 113.078 430.772 112.958 430.951 112.897L430.963 112.885Z" fill="#4D9AFD"/>
<path d="M491.949 107.754C491.671 107.868 491.433 108.06 491.263 108.307C491.093 108.554 490.999 108.846 490.993 109.146C491.047 109.767 491.211 110.373 491.477 110.937C492.481 113.489 492.819 116.254 492.458 118.972C492.343 119.498 492.343 120.043 492.458 120.569C492.526 120.826 492.689 121.048 492.912 121.192C493.136 121.335 493.406 121.389 493.668 121.344C494.128 121.199 494.309 120.654 494.406 120.134C495.29 116.019 495.495 113.188 493.595 108.698C493.583 108.747 492.809 107.391 491.949 107.754Z" fill="white"/>
<path d="M493.644 123.401C493.682 124.275 493.499 125.145 493.112 125.93C492.882 126.402 492.482 126.886 491.901 126.849C491.646 126.806 491.414 126.676 491.242 126.483C491.071 126.289 490.97 126.043 490.957 125.785C490.95 125.27 491.062 124.76 491.284 124.296C491.43 123.773 491.74 123.311 492.168 122.977C492.279 122.903 492.406 122.856 492.538 122.839C492.671 122.822 492.805 122.836 492.932 122.879C493.058 122.922 493.173 122.994 493.267 123.089C493.361 123.183 493.432 123.298 493.475 123.425" fill="white"/>
<path d="M479.29 158.386H456.246C455.236 158.386 454.418 159.204 454.418 160.213V161.205C454.418 162.215 455.236 163.033 456.246 163.033H479.29C480.299 163.033 481.117 162.215 481.117 161.205V160.213C481.117 159.204 480.299 158.386 479.29 158.386Z" fill="#1D65B7"/>
<path d="M474.788 169.579H460.022C459.013 169.579 458.194 170.397 458.194 171.406V172.399C458.194 173.408 459.013 174.226 460.022 174.226H474.788C475.797 174.226 476.615 173.408 476.615 172.399V171.406C476.615 170.397 475.797 169.579 474.788 169.579Z" fill="#1D65B7"/>
<path d="M480.609 162.04H455.422C454.239 162.04 453.28 162.999 453.28 164.182V165.029C453.28 166.212 454.239 167.171 455.422 167.171H480.609C481.792 167.171 482.751 166.212 482.751 165.029V164.182C482.751 162.999 481.792 162.04 480.609 162.04Z" fill="#1D65B7"/>
<path d="M478.975 166.095H456.56C455.377 166.095 454.418 167.054 454.418 168.237V169.084C454.418 170.267 455.377 171.226 456.56 171.226H478.975C480.158 171.226 481.117 170.267 481.117 169.084V168.237C481.117 167.054 480.158 166.095 478.975 166.095Z" fill="#1D65B7"/>
<path d="M404.155 117.544V110.828H398.03C397.638 108.923 396.909 107.103 395.876 105.455L400.209 100.868L395.876 96.4878L391.555 100.856C389.845 99.6378 387.912 98.7662 385.867 98.2909V92.5186H379.694V97.8673L380.711 97.9399C378.26 98.1516 375.891 98.9261 373.788 100.203L369.358 96.0521L364.929 100.856L368.923 104.85C367.734 106.563 366.887 108.491 366.43 110.525H360.56V117.012H366.308C366.679 119.003 367.418 120.907 368.487 122.627L364.445 127.056L368.947 131.727L373.413 127.636C375.005 128.667 376.767 129.408 378.617 129.827V135.95H385.504V129.899C387.263 129.533 388.948 128.874 390.49 127.951L395.235 132.126L399.58 127.54L395.574 123.159C396.723 121.468 397.545 119.575 397.994 117.58L404.155 117.544ZM382.188 125.737C379.872 125.739 377.607 125.054 375.681 123.769C373.754 122.485 372.252 120.657 371.365 118.518C370.478 116.38 370.245 114.026 370.696 111.755C371.147 109.484 372.262 107.397 373.9 105.76C375.537 104.123 377.624 103.008 379.895 102.557C382.167 102.106 384.521 102.339 386.66 103.226C388.799 104.113 390.627 105.615 391.912 107.541C393.197 109.467 393.881 111.731 393.879 114.047C393.879 115.582 393.577 117.102 392.989 118.52C392.402 119.939 391.54 121.227 390.455 122.313C389.369 123.398 388.08 124.259 386.662 124.847C385.243 125.434 383.723 125.737 382.188 125.737Z" fill="white"/>
<path d="M411.186 79.6666V76.5324H408.33C408.15 75.6432 407.81 74.7943 407.325 74.0274L409.335 71.8976L407.325 69.8525L405.304 71.8976C404.511 71.328 403.615 70.917 402.666 70.6875V68.001H399.797V70.4938H400.257C399.12 70.588 398.022 70.9487 397.05 71.5466L394.98 69.6104L392.911 71.825L394.775 73.6886C394.201 74.4797 393.79 75.3762 393.564 76.3266H390.829V79.352H393.504C393.677 80.2791 394.021 81.1657 394.521 81.9658L392.632 84.0352L394.738 86.2134L396.808 84.3014C397.548 84.7817 398.368 85.1259 399.229 85.3179V88.198H402.436V85.3542C403.254 85.1792 404.039 84.8727 404.76 84.4466L406.962 86.3949L408.996 84.253L407.12 82.2079C407.655 81.4234 408.037 80.5447 408.245 79.6182L411.186 79.6666ZM401.008 83.4785C399.931 83.4785 398.878 83.1591 397.982 82.5608C397.086 81.9624 396.388 81.1119 395.976 80.1169C395.564 79.1218 395.456 78.0269 395.666 76.9706C395.876 75.9142 396.395 74.9439 397.157 74.1823C397.918 73.4208 398.889 72.9021 399.945 72.692C401.002 72.4819 402.097 72.5897 403.092 73.0019C404.087 73.414 404.938 74.112 405.536 75.0075C406.135 75.9031 406.454 76.9559 406.454 78.0329C406.454 79.4772 405.88 80.8623 404.859 81.8835C403.837 82.9048 402.452 83.4785 401.008 83.4785Z" fill="white"/>
<path d="M82.2762 169.131V165.09H78.5848C78.355 163.942 77.916 162.847 77.2898 161.858L79.904 159.099L77.2898 156.522L74.6876 159.16C73.6639 158.422 72.5037 157.896 71.2746 157.611V154.102H67.559V157.333H68.1641C66.69 157.464 65.2657 157.932 64.0007 158.7L61.338 156.195L58.6633 159.063L61.0839 161.483C60.3633 162.515 59.8533 163.679 59.5831 164.908H56.0732V168.817H59.5347C59.7475 170.016 60.1915 171.163 60.8418 172.193L58.4212 174.855L61.1444 177.675L63.8313 175.255C64.7893 175.88 65.8506 176.331 66.9659 176.586V180.301H71.1172V176.67C72.1786 176.438 73.1933 176.029 74.1188 175.46L76.9751 177.977L79.5893 175.218L77.1687 172.58C77.8663 171.564 78.3596 170.421 78.6211 169.216L82.2762 169.131ZM69.0476 174.069C67.6545 174.069 66.2926 173.656 65.1342 172.882C63.9759 172.108 63.073 171.008 62.5399 169.721C62.0067 168.434 61.8673 167.018 62.1391 165.652C62.4108 164.286 63.0817 163.031 64.0668 162.046C65.0519 161.061 66.307 160.39 67.6734 160.118C69.0398 159.846 70.4561 159.986 71.7432 160.519C73.0303 161.052 74.1304 161.955 74.9044 163.113C75.6784 164.271 76.0916 165.633 76.0916 167.026C76.0932 167.951 75.9121 168.868 75.5586 169.723C75.2052 170.578 74.6864 171.355 74.032 172.009C73.3776 172.664 72.6004 173.182 71.7451 173.536C70.8898 173.889 69.9731 174.07 69.0476 174.069Z" fill="white"/>
<path d="M52.7932 151.682V149.589H50.8809C50.7515 148.994 50.5223 148.425 50.2031 147.906L51.5587 146.479L50.2031 145.111L48.8113 146.454C48.2772 146.072 47.6724 145.801 47.0321 145.656V143.853H45.1804V145.523H45.4951C44.7291 145.59 43.9884 145.83 43.3286 146.224L41.9368 144.93L40.545 146.418L41.7552 147.628C41.3768 148.158 41.1093 148.759 40.9686 149.395H39.1289V151.428H40.9201C41.0384 152.049 41.268 152.643 41.5979 153.183L40.3876 154.562L41.7916 156.026L43.1834 154.744C43.6841 155.066 44.2369 155.3 44.8173 155.433V157.358H46.9716V155.446C47.5225 155.333 48.0503 155.129 48.5329 154.841L50.0216 156.208L51.3771 154.78L50.1668 153.4C50.5236 152.872 50.7781 152.28 50.9172 151.658L52.7932 151.682ZM45.9308 154.248C45.2127 154.248 44.5107 154.035 43.9136 153.636C43.3165 153.237 42.8511 152.67 42.5763 152.006C42.3015 151.343 42.2296 150.613 42.3697 149.909C42.5097 149.205 42.8556 148.558 43.3634 148.05C43.8711 147.542 44.5181 147.197 45.2224 147.057C45.9268 146.916 46.6568 146.988 47.3203 147.263C47.9837 147.538 48.5508 148.003 48.9498 148.6C49.3487 149.197 49.5617 149.899 49.5617 150.617C49.5553 151.576 49.1699 152.493 48.4897 153.169C47.8095 153.844 46.8896 154.223 45.9308 154.223V154.248Z" fill="white"/>
<path opacity="0.48" d="M345.891 99.3555H193.515V299.329H345.891V99.3555Z" fill="#82C3E2"/>
<path d="M342.381 95.6406H190.005V295.614H342.381V95.6406Z" fill="white"/>
<path d="M215.188 115.533H213.37C213.262 114.999 213.074 114.531 212.805 114.127C212.541 113.723 212.219 113.384 211.838 113.11C211.461 112.831 211.043 112.622 210.584 112.482C210.124 112.343 209.645 112.273 209.147 112.273C208.238 112.273 207.414 112.507 206.676 112.976C205.943 113.444 205.359 114.135 204.924 115.047C204.494 115.959 204.279 117.078 204.279 118.404C204.279 119.73 204.494 120.849 204.924 121.761C205.359 122.673 205.943 123.364 206.676 123.832C207.414 124.301 208.238 124.535 209.147 124.535C209.645 124.535 210.124 124.465 210.584 124.326C211.043 124.186 211.461 123.979 211.838 123.705C212.219 123.426 212.541 123.085 212.805 122.681C213.074 122.272 213.262 121.803 213.37 121.275H215.188C215.051 122.058 214.802 122.758 214.44 123.376C214.078 123.994 213.629 124.52 213.091 124.954C212.554 125.382 211.95 125.709 211.28 125.933C210.616 126.158 209.905 126.27 209.147 126.27C207.866 126.27 206.728 125.951 205.731 125.313C204.734 124.675 203.949 123.767 203.377 122.591C202.805 121.415 202.52 120.019 202.52 118.404C202.52 116.789 202.805 115.393 203.377 114.217C203.949 113.04 204.734 112.133 205.731 111.495C206.728 110.857 207.866 110.538 209.147 110.538C209.905 110.538 210.616 110.65 211.28 110.875C211.95 111.099 212.554 111.428 213.091 111.862C213.629 112.29 214.078 112.814 214.44 113.432C214.802 114.045 215.051 114.745 215.188 115.533Z" fill="#4D9AFD"/>
<path d="M218.126 126.06V110.747H227.187V112.392H219.944V117.566H226.718V119.211H219.944V124.415H227.305V126.06H218.126Z" fill="#4D9AFD"/>
<path d="M230.464 126.06V110.747H235.538C236.711 110.747 237.673 110.952 238.426 111.361C239.179 111.764 239.736 112.32 240.098 113.028C240.459 113.736 240.64 114.541 240.64 115.443C240.64 116.345 240.459 117.145 240.098 117.843C239.736 118.541 239.181 119.089 238.433 119.488C237.686 119.882 236.73 120.079 235.567 120.079H231.461V118.404H235.508C236.31 118.404 236.955 118.284 237.444 118.045C237.937 117.806 238.294 117.467 238.514 117.028C238.739 116.585 238.851 116.056 238.851 115.443C238.851 114.83 238.739 114.294 238.514 113.835C238.289 113.377 237.93 113.023 237.436 112.774C236.943 112.519 236.29 112.392 235.479 112.392H232.282V126.06H230.464ZM237.532 119.182L241.227 126.06H239.115L235.479 119.182H237.532Z" fill="#4D9AFD"/>
<path d="M242.849 112.392V110.747H254.109V112.392H249.388V126.06H247.57V112.392H242.849Z" fill="#4D9AFD"/>
<path d="M258.734 110.747V126.06H256.915V110.747H258.734Z" fill="#4D9AFD"/>
<path d="M262.379 126.06V110.747H271.382V112.392H264.197V117.566H270.707V119.211H264.197V126.06H262.379Z" fill="#4D9AFD"/>
<path d="M276.314 110.747V126.06H274.496V110.747H276.314Z" fill="#4D9AFD"/>
<path d="M292.041 115.533H290.223C290.115 114.999 289.927 114.531 289.658 114.127C289.395 113.723 289.072 113.384 288.691 113.11C288.314 112.831 287.896 112.622 287.437 112.482C286.978 112.343 286.499 112.273 286 112.273C285.091 112.273 284.268 112.507 283.53 112.976C282.796 113.444 282.212 114.135 281.777 115.047C281.347 115.959 281.132 117.078 281.132 118.404C281.132 119.73 281.347 120.849 281.777 121.761C282.212 122.673 282.796 123.364 283.53 123.832C284.268 124.301 285.091 124.535 286 124.535C286.499 124.535 286.978 124.465 287.437 124.326C287.896 124.186 288.314 123.979 288.691 123.705C289.072 123.426 289.395 123.085 289.658 122.681C289.927 122.272 290.115 121.803 290.223 121.275H292.041C291.904 122.058 291.655 122.758 291.293 123.376C290.932 123.994 290.482 124.52 289.944 124.954C289.407 125.382 288.803 125.709 288.134 125.933C287.469 126.158 286.758 126.27 286 126.27C284.72 126.27 283.581 125.951 282.584 125.313C281.587 124.675 280.802 123.767 280.23 122.591C279.659 121.415 279.373 120.019 279.373 118.404C279.373 116.789 279.659 115.393 280.23 114.217C280.802 113.04 281.587 112.133 282.584 111.495C283.581 110.857 284.72 110.538 286 110.538C286.758 110.538 287.469 110.65 288.134 110.875C288.803 111.099 289.407 111.428 289.944 111.862C290.482 112.29 290.932 112.814 291.293 113.432C291.655 114.045 291.904 114.745 292.041 115.533Z" fill="#4D9AFD"/>
<path d="M295.595 126.06H293.689L299.202 110.747H301.079L306.592 126.06H304.686L300.199 113.17H300.082L295.595 126.06ZM296.299 120.079H303.982V121.724H296.299V120.079Z" fill="#4D9AFD"/>
<path d="M306.355 112.392V110.747H317.616V112.392H312.895V126.06H311.077V112.392H306.355Z" fill="#4D9AFD"/>
<path d="M320.422 126.06V110.747H329.483V112.392H322.24V117.566H329.014V119.211H322.24V124.415H329.601V126.06H320.422Z" fill="#4D9AFD"/>
<path d="M285.267 140.839H244.407V142.993H285.267V140.839Z" fill="#4D9AFD"/>
<path d="M285.267 187.853H244.407V190.007H285.267V187.853Z" fill="#4D9AFD"/>
<path d="M285.267 192.947H244.407V195.101H285.267V192.947Z" fill="#4D9AFD"/>
<path d="M285.267 198.635H244.407V200.789H285.267V198.635Z" fill="#4D9AFD"/>
<path d="M307.887 147.035H223.614V149.189H307.887V147.035Z" fill="#4D9AFD"/>
<path d="M299.96 163.517H229.69V165.671H299.96V163.517Z" fill="#4D9AFD"/>
<path d="M299.96 169.507H229.69V171.661H299.96V169.507Z" fill="#4D9AFD"/>
<path d="M299.96 175.957H229.69V178.111H299.96V175.957Z" fill="#4D9AFD"/>
<path d="M336.693 101.849H195.669V288.777H336.693V101.849Z" stroke="#ADD4F2" stroke-width="1.02" stroke-miterlimit="10"/>
<path d="M281.963 318.425L266.193 311.419L250.423 318.425V265.7H281.963V318.425Z" fill="#CEA2DD"/>
<path d="M254.32 269.875V311.697L266 306.106L278.127 311.697V269.875" stroke="white" stroke-width="0.53" stroke-miterlimit="10"/>
<path d="M266.29 214.5L270.308 212.382L274.145 215.262L278.744 213.822L281.612 217.368H286.405L288.886 221.772L292.917 222.535L294.066 226.758L298.665 228.864V233.075L302.684 235.556V240.348L305.746 243.99L304.209 248.056L305.746 252.219L304.027 256.443L305.746 260.46L302.49 263.909L302.684 268.689L298.847 271.569V275.78L294.635 277.511L293.11 282.291H288.886L286.018 286.889H281.806L278.55 290.532L274.52 288.995L270.502 292.057L266.29 290.338L262.078 292.057L258.435 289.382L254.03 290.338L250.968 287.083H246.368L243.875 282.872L239.47 281.722L238.32 277.317L233.915 275.78V271.763L229.509 268.508V263.522L227.403 260.46L228.553 256.055L226.641 252.219L229.122 248.056L227.597 244.184L230.272 240.735L230.09 235.556L233.346 233.269L234.108 228.477L238.32 226.94L239.663 222.16L243.875 221.579L246.175 217.561H251.343L253.449 214.306L258.435 215.262L262.453 212.382L266.29 214.5Z" fill="#FEC456"/>
<path d="M266.193 282.013C282.65 282.013 295.991 268.674 295.991 252.219C295.991 235.765 282.65 222.426 266.193 222.426C249.736 222.426 236.396 235.765 236.396 252.219C236.396 268.674 249.736 282.013 266.193 282.013Z" fill="white"/>
<path d="M292.749 256.478C295.113 241.803 285.131 227.991 270.455 225.627C255.778 223.264 241.964 233.244 239.6 247.918C237.236 262.593 247.217 276.405 261.894 278.769C276.571 281.133 290.385 271.153 292.749 256.478Z" fill="#FEC456"/>
<path d="M356.13 84.3867C356.13 89.006 354.76 93.5215 352.193 97.3623C349.626 101.203 345.978 104.197 341.71 105.964C337.442 107.732 332.745 108.195 328.214 107.293C323.683 106.392 319.521 104.168 316.254 100.902C312.987 97.6352 310.762 93.4737 309.861 88.9431C308.96 84.4126 309.422 79.7166 311.19 75.449C312.958 71.1813 315.952 67.5337 319.793 64.9674C323.635 62.401 328.151 61.0312 332.771 61.0312C335.838 61.0313 338.876 61.6354 341.71 62.8091C344.544 63.9828 347.119 65.7032 349.288 67.8719C351.457 70.0407 353.178 72.6154 354.352 75.449C355.525 78.2826 356.13 81.3196 356.13 84.3867Z" fill="#CEA2DD"/>
<path d="M348.021 76.6172L329.66 97.1409L317.533 85.0155L322.205 80.3444L328.728 86.8791L342.732 71.6436L348.021 76.6172Z" fill="white"/>
<path d="M92.1282 144.578C114.882 144.578 133.327 126.135 133.327 103.385C133.327 80.635 114.882 62.1924 92.1282 62.1924C69.3749 62.1924 50.9297 80.635 50.9297 103.385C50.9297 126.135 69.3749 144.578 92.1282 144.578Z" fill="#056CFA"/>
<path d="M113.465 105.382L108.624 102.127V104.039H96.8601C96.6033 102.945 96.0303 101.951 95.2125 101.181C94.3947 100.41 93.3682 99.8976 92.261 99.7065V84.7009H94.1733L90.9055 79.8604L87.6498 84.7009H89.562V99.8638C88.5908 100.153 87.7127 100.692 87.016 101.428C86.3194 102.164 85.8288 103.07 85.5934 104.056C85.358 105.041 85.3863 106.071 85.6753 107.042C85.9643 108.014 86.5039 108.892 87.2398 109.588C87.9757 110.285 88.882 110.775 89.8677 111.011C90.8533 111.246 91.8836 111.218 92.8549 110.929C93.8262 110.64 94.7043 110.101 95.401 109.365C96.0977 108.629 96.5884 107.723 96.8238 106.737H108.552V108.637L113.465 105.382Z" fill="white"/>
<path d="M92.1282 139.932C84.899 139.932 77.8323 137.788 71.8215 133.772C65.8107 129.757 61.1259 124.049 58.3594 117.371C55.593 110.693 54.8692 103.345 56.2795 96.256C57.6898 89.1668 61.1709 82.6549 66.2827 77.5439C71.3944 72.4329 77.9072 68.9522 84.9974 67.5421C92.0876 66.1319 99.4368 66.8557 106.116 69.6217C112.794 72.3878 118.503 77.072 122.519 83.0819C126.535 89.0919 128.679 96.1576 128.679 103.386C128.67 113.075 124.816 122.365 117.963 129.217C111.11 136.069 101.819 139.922 92.1282 139.932ZM92.1282 68.534C85.2337 68.534 78.494 70.5783 72.7616 74.4084C67.0292 78.2385 62.5616 83.6823 59.9237 90.0514C57.2859 96.4204 56.5963 103.429 57.9422 110.189C59.2882 116.95 62.6091 123.16 67.4851 128.034C72.3611 132.907 78.5731 136.226 85.3354 137.569C92.0977 138.913 99.1066 138.221 105.476 135.581C111.845 132.941 117.288 128.472 121.116 122.739C124.945 117.007 126.987 110.267 126.985 103.374C126.969 94.1375 123.29 85.2846 116.756 78.756C110.222 72.2274 101.366 68.5557 92.1282 68.5461V68.534Z" fill="white"/>
<path d="M92.5513 74.1485C92.5513 74.4907 92.4498 74.8253 92.2596 75.1099C92.0694 75.3945 91.7991 75.6163 91.4829 75.7472C91.1666 75.8782 90.8186 75.9125 90.4829 75.8457C90.1472 75.779 89.8388 75.6141 89.5968 75.3721C89.3547 75.1301 89.1899 74.8218 89.1231 74.4861C89.0563 74.1504 89.0906 73.8025 89.2216 73.4863C89.3526 73.1701 89.5744 72.8998 89.859 72.7096C90.1436 72.5195 90.4783 72.418 90.8206 72.418C91.0483 72.4164 91.2741 72.4601 91.4848 72.5465C91.6955 72.6328 91.8869 72.7603 92.048 72.9213C92.209 73.0823 92.3364 73.2737 92.4228 73.4844C92.5092 73.695 92.5529 73.9208 92.5513 74.1485Z" fill="white"/>
<path d="M122.107 107.052C123.063 107.052 123.837 106.277 123.837 105.321C123.837 104.366 123.063 103.591 122.107 103.591C121.151 103.591 120.376 104.366 120.376 105.321C120.376 106.277 121.151 107.052 122.107 107.052Z" fill="white"/>
<path d="M92.5513 132.017C92.5537 132.36 92.4542 132.696 92.2655 132.982C92.0768 133.268 91.8073 133.492 91.4913 133.625C91.1752 133.757 90.8269 133.793 90.4904 133.728C90.1538 133.663 89.8443 133.499 89.6011 133.257C89.3578 133.016 89.1918 132.707 89.124 132.371C89.0562 132.035 89.0898 131.687 89.2204 131.37C89.3511 131.053 89.5729 130.782 89.8577 130.591C90.1426 130.401 90.4777 130.299 90.8205 130.299C91.2775 130.299 91.7158 130.479 92.0401 130.801C92.3643 131.123 92.5481 131.56 92.5513 132.017Z" fill="white"/>
<path d="M64.182 105.321C64.202 105.56 64.1722 105.8 64.0947 106.027C64.0171 106.253 63.8933 106.461 63.7312 106.637C63.5691 106.813 63.3722 106.954 63.1529 107.05C62.9336 107.147 62.6968 107.196 62.4573 107.196C62.2178 107.196 61.981 107.147 61.7617 107.05C61.5424 106.954 61.3455 106.813 61.1834 106.637C61.0213 106.461 60.8975 106.253 60.8199 106.027C60.7423 105.8 60.7126 105.56 60.7326 105.321C60.7689 104.889 60.9663 104.486 61.2857 104.192C61.6052 103.898 62.0233 103.735 62.4573 103.735C62.8913 103.735 63.3094 103.898 63.6289 104.192C63.9483 104.486 64.1457 104.889 64.182 105.321Z" fill="white"/>
</svg>
